<?xml version="1.0" standalone="no"?>
<!DOCTYPE svg PUBLIC "-//W3C//DTD SVG 20010904//EN"
 "http://www.w3.org/TR/2001/REC-SVG-20010904/DTD/svg10.dtd">
<svg version="1.0" xmlns="http://www.w3.org/2000/svg"
 width="546.000000pt" height="457.000000pt" viewBox="0 0 546.000000 457.000000"
 preserveAspectRatio="xMidYMid meet">

<g transform="translate(0.000000,457.000000) scale(0.100000,-0.100000)"
fill="#000000" stroke="none">
<path d="M2460 4090 c-206 -32 -456 -116 -603 -202 -26 -15 -50 -28 -53 -28
-7 0 -178 -116 -195 -132 -8 -7 -40 -35 -72 -61 -245 -207 -452 -518 -551
-832 -55 -173 -68 -264 -73 -498 -4 -183 -2 -247 12 -330 73 -444 273 -806
611 -1103 449 -395 1098 -541 1683 -378 220 61 498 203 656 335 362 302 575
667 656 1123 27 154 27 449 -1 607 -138 786 -748 1380 -1540 1500 -160 24
-373 24 -530 -1z m358 -760 c2 -24 1 -59 -3 -77 l-6 -33 -77 0 c-81 0 -209
-23 -226 -40 -5 -5 -17 -10 -26 -10 -18 0 -123 -68 -165 -107 -167 -156 -244
-413 -183 -609 11 -38 24 -71 27 -74 4 -3 13 -24 21 -48 7 -24 24 -54 37 -68
13 -14 23 -29 23 -35 0 -5 10 -9 23 -10 12 0 16 -3 9 -6 -25 -10 9 -33 49 -33
31 0 39 -4 38 -17 0 -11 -3 -13 -6 -5 -6 16 -32 16 -29 -1 1 -7 11 -23 23 -36
23 -25 93 -65 93 -54 0 5 4 2 9 -6 12 -18 115 -59 160 -63 l36 -3 0 183 c1
104 -3 182 -8 182 -5 0 -4 7 3 15 10 12 10 21 2 40 -7 15 -8 25 -2 25 6 0 10
9 10 20 0 11 -4 20 -10 20 -5 0 -10 5 -10 11 0 5 4 8 9 5 5 -4 7 3 4 14 -6 22
-42 28 -44 8 0 -10 -2 -10 -6 0 -3 7 -23 12 -52 12 -26 0 -52 5 -58 11 -7 7
-9 2 -6 -18 4 -22 2 -25 -6 -13 -7 10 -11 11 -11 3 0 -7 -4 -13 -10 -13 -5 0
-10 9 -10 21 0 11 5 17 10 14 6 -3 10 -2 10 4 0 5 -6 12 -12 14 -10 4 -9 8 2
16 9 7 16 7 18 1 6 -16 22 -1 22 20 0 13 -9 22 -25 26 -19 5 -25 13 -25 35 0
16 6 29 13 30 10 0 10 2 0 6 -7 2 -13 14 -13 26 0 18 2 19 10 7 8 -13 10 -12
10 3 0 9 -6 17 -12 18 -10 0 -10 2 0 6 14 6 16 43 2 43 -5 0 -10 9 -10 20 0
21 15 27 25 9 4 -5 7 -35 7 -65 l1 -54 174 0 173 0 -2 -437 -3 -438 -74 -3
c-139 -6 -306 43 -436 129 -157 102 -274 259 -328 442 -31 106 -31 322 1 422
48 147 112 253 209 346 157 150 325 219 528 216 l100 -2 3 -45z m178 9 c131
-55 199 -101 294 -199 123 -127 204 -310 215 -488 20 -310 -126 -579 -397
-731 -45 -26 -151 -71 -165 -71 -2 0 -3 37 -3 83 l0 82 75 38 c65 34 75 43 75
65 0 19 3 23 9 13 12 -18 37 -4 90 55 63 69 91 118 92 161 0 30 2 34 9 18 l9
-20 1 20 c1 11 1 29 0 40 -1 11 1 17 6 13 11 -12 33 25 40 70 l6 41 -63 3 -64
3 0 80 0 80 63 3 c34 2 62 6 62 10 0 4 -9 36 -20 71 -32 100 -79 181 -146 247
-58 58 -171 134 -221 149 -22 6 -23 12 -23 96 0 49 2 89 4 89 2 0 25 -9 52
-21z m144 -444 l0 -105 -40 0 c-29 0 -40 -4 -40 -15 0 -8 5 -15 10 -15 6 0 10
-4 10 -10 0 -5 -7 -10 -15 -10 -10 0 -15 10 -15 30 0 27 3 30 30 30 17 0 30 5
30 13 0 8 4 7 10 -3 8 -12 10 -10 10 8 0 13 -4 20 -10 17 -5 -3 -10 3 -10 15
0 12 5 18 10 15 6 -3 10 3 10 14 0 12 -6 21 -12 21 -9 0 -8 4 2 10 12 8 10 10
-10 11 -24 2 -24 2 -2 6 14 3 22 12 22 24 0 11 -4 17 -10 14 -5 -3 -10 1 -10
9 0 9 -8 16 -17 15 -11 0 -13 -3 -5 -6 6 -2 12 -14 11 -26 0 -21 -1 -21 -9 -2
-7 17 -9 17 -9 3 -1 -28 -31 -22 -31 6 0 18 -7 26 -22 29 -13 2 7 5 45 6 l67
1 0 -105z m-157 61 c11 -3 19 -7 16 -10 -3 -3 -15 -3 -27 1 -15 3 -22 13 -21
27 1 15 3 16 6 5 2 -10 14 -19 26 -23z m-37 -16 c15 0 20 -35 5 -44 -5 -4 -6
4 -3 16 5 21 4 21 -20 -5 l-25 -27 0 25 c0 13 3 22 8 19 5 -3 9 2 9 11 0 9 -5
13 -11 10 -6 -4 -5 3 3 14 13 22 13 22 16 1 2 -11 10 -20 18 -20z m84 30 c-13
-9 -13 -11 0 -20 13 -9 13 -10 0 -10 -13 0 -13 -1 0 -10 13 -9 13 -10 0 -10
-10 0 -11 -3 -4 -8 9 -5 8 -11 -2 -20 -12 -11 -14 -5 -14 38 0 41 3 50 18 50
14 0 15 -2 2 -10z m41 -100 c5 0 9 -9 9 -20 0 -11 -7 -20 -15 -20 -11 0 -15
11 -14 43 1 23 4 32 6 20 2 -13 9 -23 14 -23z m-711 -47 c0 -36 3 -43 19 -43
14 0 18 -5 14 -20 -3 -11 -9 -17 -14 -14 -5 3 -7 10 -4 15 4 5 1 9 -4 9 -6 0
-11 -7 -11 -15 0 -9 -6 -12 -17 -8 -11 4 -12 8 -5 11 16 5 15 32 0 32 -8 0 -9
3 -3 8 15 11 17 32 3 32 -9 0 -8 4 2 10 13 8 12 10 -2 10 -10 0 -18 -4 -18
-10 0 -5 -21 -10 -47 -10 -35 0 -44 3 -33 10 8 5 11 10 7 10 -5 0 -6 4 -3 8 2
4 30 8 60 7 l56 0 0 -42z m120 16 c0 -6 -7 -8 -16 -5 -9 3 -18 6 -20 6 -2 0
-4 7 -4 15 0 13 4 14 20 5 11 -6 20 -16 20 -21z m481 14 c2 -40 -4 -79 -14
-92 -9 -11 -9 -13 -1 -8 7 4 11 -3 11 -21 0 -15 -2 -21 -4 -14 -3 6 -13 12
-23 12 -10 0 -20 -6 -23 -12 -3 -7 -5 -2 -4 12 1 14 5 28 11 32 16 11 16 40 0
34 -17 -7 -18 5 -1 23 6 8 7 11 1 8 -6 -3 -11 0 -11 7 0 8 7 12 15 8 9 -3 13
-1 9 5 -4 6 -1 14 5 16 23 9 28 7 29 -10z m79 -3 c0 -11 -7 -20 -15 -20 -8 0
-15 9 -15 20 0 11 7 20 15 20 8 0 15 -9 15 -20z m-647 -10 c-3 -12 -8 -19 -11
-16 -5 6 5 36 12 36 2 0 2 -9 -1 -20z m37 -36 c0 -8 -4 -14 -8 -14 -4 0 -8 9
-8 19 0 11 4 17 8 15 4 -3 8 -12 8 -20z m-150 2 c0 -8 -6 -17 -12 -19 -8 -3
-6 -6 4 -6 17 -1 17 -2 1 -20 -26 -31 -33 -17 -24 52 2 13 31 7 31 -7z m748
-15 c-7 -2 -7 -6 0 -10 7 -4 5 -13 -4 -25 -13 -18 -14 -16 -14 22 0 36 2 41
14 30 8 -8 10 -15 4 -17z m-708 -31 c0 -13 -5 -18 -14 -14 -8 3 -12 12 -9 20
8 21 23 17 23 -6z m110 -11 c0 -16 -4 -28 -9 -25 -5 3 -8 17 -8 31 0 14 3 25
8 25 5 0 9 -14 9 -31z m564 -4 c-4 -8 -8 -15 -10 -15 -2 0 -4 7 -4 15 0 8 4
15 10 15 5 0 7 -7 4 -15z m146 7 c0 -5 -7 -9 -15 -9 -8 0 -15 4 -15 9 0 4 7 8
15 8 8 0 15 -4 15 -8z m-69 -31 c6 10 9 6 9 -14 0 -25 -2 -27 -15 -13 -8 8
-15 21 -14 28 0 10 2 10 6 -1 5 -11 7 -11 14 0z m69 -6 c0 -8 -7 -15 -15 -15
-13 0 -14 3 -3 15 16 18 18 18 18 0z m-877 -12 c-7 -2 -19 -2 -25 0 -7 3 -2 5
12 5 14 0 19 -2 13 -5z m97 -8 c0 -12 -13 -15 -67 -13 l-68 2 63 3 c34 2 62 8
62 13 0 6 2 10 5 10 3 0 5 -7 5 -15z m74 0 c3 -8 2 -15 -2 -15 -5 0 -6 -16 -4
-35 2 -19 0 -35 -5 -35 -5 0 -9 23 -9 50 0 49 8 64 20 35z m597 8 c-11 -5 -11
-7 0 -14 11 -7 11 -9 -2 -9 -9 0 -19 7 -23 15 -4 11 1 15 17 14 13 0 16 -3 8
-6z m-66 -31 c-3 -3 -14 -7 -25 -9 -13 -2 -18 2 -14 11 3 8 14 12 25 9 11 -3
17 -8 14 -11z m172 12 c-3 -3 -12 -4 -19 -1 -8 3 -5 6 6 6 11 1 17 -2 13 -5z
m-780 -36 c-3 -8 -6 -5 -6 6 -1 11 2 17 5 13 3 -3 4 -12 1 -19z m675 15 c-6
-2 -10 -9 -7 -13 3 -5 1 -11 -5 -15 -5 -3 -10 3 -10 14 0 14 6 21 18 20 10 0
12 -3 4 -6z m48 -14 c0 -11 -4 -17 -10 -14 -5 3 -10 -3 -10 -14 0 -12 6 -21
13 -21 9 0 9 -2 1 -8 -7 -4 -14 -18 -17 -32 -2 -14 -5 5 -6 43 -1 53 2 67 14
67 8 0 15 -9 15 -21z m60 -42 c0 -50 -3 -64 -15 -64 -9 0 -15 9 -15 21 0 17 2
18 10 6 8 -12 10 -9 10 13 0 21 -5 27 -20 27 -17 0 -19 2 -8 14 9 10 15 11 20
2 4 -6 8 1 8 17 0 15 2 27 5 27 3 0 5 -28 5 -63z m-740 32 c0 -5 -4 -9 -10 -9
-5 0 -10 7 -10 16 0 8 5 12 10 9 6 -3 10 -10 10 -16z m559 -7 c0 -14 -2 -13
-9 3 -8 19 -9 19 -9 -2 -1 -13 -6 -23 -12 -23 -5 0 -7 5 -4 10 3 6 -1 10 -9
10 -9 0 -16 5 -16 11 0 5 4 8 8 5 4 -2 14 -1 22 4 18 11 30 4 29 -18z m-645 3
c-5 -11 1 -15 22 -15 15 0 24 -3 20 -7 -3 -4 -24 -6 -45 -5 -22 2 -42 -2 -46
-8 -4 -6 -10 -6 -19 2 -11 10 -11 15 0 25 16 16 31 17 38 1 3 -9 8 -8 16 5 13
21 21 22 14 2z m717 -24 c-11 -7 -11 -10 0 -14 10 -4 9 -6 -3 -6 -20 -1 -25
25 -5 32 18 6 24 -3 8 -12z m-667 -76 c-5 -12 -9 -13 -14 -5 -4 7 -18 13 -31
14 -12 0 -24 6 -26 12 -2 7 5 10 20 7 14 -3 28 1 32 7 11 18 27 -13 19 -35z
m576 -7 c0 -28 -3 -48 -7 -44 -10 10 -11 96 -1 96 4 0 8 -23 8 -52z m17 20
c-3 -7 -5 -2 -5 12 0 14 2 19 5 13 2 -7 2 -19 0 -25z m31 7 c-3 -3 -9 2 -12
12 -6 14 -5 15 5 6 7 -7 10 -15 7 -18z m109 -7 c-3 -7 -5 -2 -5 12 0 14 2 19
5 13 2 -7 2 -19 0 -25z m-667 -8 c0 -16 -4 -30 -9 -30 -8 0 -9 43 -2 58 5 11
11 -3 11 -28z m477 -2 c-3 -7 -5 -2 -5 12 0 14 2 19 5 13 2 -7 2 -19 0 -25z
m-740 -20 c-3 -8 -6 -5 -6 6 -1 11 2 17 5 13 3 -3 4 -12 1 -19z m110 6 c-3 -3
-12 -4 -19 -1 -8 3 -5 6 6 6 11 1 17 -2 13 -5z m-4 -21 c-7 -2 -21 -2 -30 0
-10 3 -4 5 12 5 17 0 24 -2 18 -5z m84 1 c-3 -3 -12 -4 -19 -1 -8 3 -5 6 6 6
11 1 17 -2 13 -5z m716 -1 c-15 -6 -17 -33 -3 -33 6 0 10 -7 10 -16 0 -8 -4
-13 -9 -9 -5 3 -12 -5 -14 -17 -2 -13 -5 1 -6 30 -1 44 2 52 17 51 10 0 12 -3
5 -6z m64 1 c-3 -3 -12 -4 -19 -1 -8 3 -5 6 6 6 11 1 17 -2 13 -5z m-778 -36
c0 -16 -2 -18 -6 -8 -3 8 -11 18 -17 22 -7 5 -4 8 7 8 11 0 17 -7 16 -22z
m-39 -13 c0 -13 -4 -14 -20 -5 -14 7 -20 7 -20 0 0 -15 -19 -12 -36 5 -14 13
-10 15 30 15 35 0 46 -4 46 -15z m123 2 c-3 -5 3 -7 13 -5 11 2 20 -4 22 -16
3 -14 0 -17 -12 -13 -11 4 -16 1 -16 -11 -1 -20 -27 -58 -35 -50 -3 3 1 11 10
18 20 16 19 60 -1 74 -13 10 -13 12 5 12 11 0 17 -4 14 -9z m697 -27 c0 -29
-4 -40 -15 -40 -8 0 -15 7 -15 15 0 8 5 15 10 15 6 0 10 11 10 25 0 14 2 25 5
25 3 0 5 -18 5 -40z m-740 20 c0 -5 -4 -10 -10 -10 -5 0 -10 5 -10 10 0 6 5
10 10 10 6 0 10 -4 10 -10z m197 -32 c-3 -8 -6 -5 -6 6 -1 11 2 17 5 13 3 -3
4 -12 1 -19z m437 -20 c7 -5 5 -8 -6 -8 -13 0 -18 7 -17 28 1 21 2 22 6 7 3
-11 10 -23 17 -27z m-677 16 c-3 -3 -12 -4 -19 -1 -8 3 -5 6 6 6 11 1 17 -2
13 -5z m910 -76 c-2 -18 -4 -6 -4 27 0 33 2 48 4 33 2 -15 2 -42 0 -60z m20
60 c-3 -8 -6 -5 -6 6 -1 11 2 17 5 13 3 -3 4 -12 1 -19z m-1024 -5 c-7 -2 -19
-2 -25 0 -7 3 -2 5 12 5 14 0 19 -2 13 -5z m54 1 c-3 -3 -12 -4 -19 -1 -8 3
-5 6 6 6 11 1 17 -2 13 -5z m-40 -20 c-3 -3 -12 -4 -19 -1 -8 3 -5 6 6 6 11 1
17 -2 13 -5z m663 -14 c0 -5 -5 -10 -11 -10 -5 0 -7 5 -4 10 3 6 8 10 11 10 2
0 4 -4 4 -10z m91 -30 c5 0 9 -7 9 -15 0 -8 -7 -15 -15 -15 -10 0 -15 10 -14
33 1 17 3 24 6 15 2 -10 9 -18 14 -18z m100 15 c6 16 8 14 8 -12 1 -36 -12
-42 -35 -18 -9 8 -11 15 -5 15 6 0 12 8 12 18 1 14 2 13 7 -3 l5 -20 8 20z
m-807 -30 c3 -8 1 -15 -4 -15 -6 0 -10 5 -10 10 0 6 -7 10 -15 10 -8 0 -15 -4
-15 -10 0 -5 -12 -9 -27 -9 -24 2 -25 2 -5 6 12 2 22 9 22 14 0 15 47 10 54
-6z m56 8 c-8 -3 -18 -11 -22 -17 -5 -7 -8 -4 -8 7 0 11 7 17 23 16 15 0 17
-2 7 -6z m817 -35 c-3 -8 -6 -5 -6 6 -1 11 2 17 5 13 3 -3 4 -12 1 -19z m-182
-27 c-6 -5 -25 10 -25 20 0 5 6 4 14 -3 8 -7 12 -15 11 -17z m62 23 c-3 -3
-12 -4 -19 -1 -8 3 -5 6 6 6 11 1 17 -2 13 -5z m-137 -14 c0 -5 -4 -10 -10
-10 -5 0 -10 5 -10 10 0 6 5 10 10 10 6 0 10 -4 10 -10z m197 -6 c-3 -3 -12
-4 -19 -1 -8 3 -5 6 6 6 11 1 17 -2 13 -5z m-867 -24 c0 -5 -4 -10 -10 -10 -5
0 -10 5 -10 10 0 6 5 10 10 10 6 0 10 -4 10 -10z m87 -26 c-3 -3 -12 -4 -19
-1 -8 3 -5 6 6 6 11 1 17 -2 13 -5z m98 -43 c3 -5 1 -12 -5 -16 -5 -3 -10 1
-10 9 0 18 6 21 15 7z m602 -53 c-3 -8 -6 -5 -6 6 -1 11 2 17 5 13 3 -3 4 -12
1 -19z m-869 -430 l3 -28 -98 0 c-125 0 -168 -12 -194 -53 -29 -45 -21 -119
15 -155 25 -25 33 -27 131 -30 l105 -4 0 51 0 51 -80 0 c-73 0 -80 2 -80 20 0
19 7 20 110 20 l110 0 0 -101 0 -101 -138 4 c-134 3 -140 4 -175 31 -67 51
-92 135 -63 211 34 90 92 116 246 113 l105 -2 3 -27z m142 -148 l0 -180 -30 0
-30 0 0 173 c0 96 3 177 7 180 3 4 17 7 30 7 l23 0 0 -180z m288 -2 l2 -178
-30 0 -30 0 0 80 0 80 -90 0 c-83 0 -90 2 -90 20 0 17 8 19 88 22 l87 3 3 65
c3 83 7 92 34 88 23 -3 23 -5 26 -180z m297 174 c6 -4 47 -67 90 -140 44 -73
88 -145 97 -160 25 -40 22 -54 -9 -50 -19 2 -36 16 -56 46 l-28 42 -86 0 -85
0 14 23 c12 17 26 23 67 25 28 2 51 7 51 12 0 8 -53 102 -67 120 -5 6 -37 -35
-55 -70 -38 -73 -113 -193 -124 -197 -7 -2 -21 -3 -32 -1 -21 3 -18 18 16 70
9 15 52 86 95 158 75 124 89 139 112 122z m595 -21 c0 -10 -52 -72 -120 -141
-66 -68 -117 -127 -114 -131 3 -5 57 -9 120 -9 l114 0 0 -25 0 -25 -154 0
c-85 0 -161 3 -170 6 -33 12 -13 42 104 159 66 66 120 123 120 127 0 4 -53 9
-117 10 -114 3 -118 4 -121 26 l-3 22 170 0 c161 0 171 -1 171 -19z m122 -126
c1 -80 2 -157 2 -172 1 -23 -3 -28 -24 -28 l-25 0 -3 173 -2 172 25 0 25 0 2
-145z m-1712 -304 c0 -6 -17 -11 -37 -13 -35 -3 -38 -6 -41 -35 -3 -32 -2 -33
37 -33 23 0 41 -4 41 -10 0 -5 -22 -10 -50 -10 l-50 0 0 55 0 55 50 0 c28 0
50 -4 50 -9z m138 -3 c-3 -7 -23 -14 -46 -16 -53 -4 -55 -22 -3 -22 42 0 65
-18 55 -44 -5 -12 -19 -16 -60 -16 -30 0 -54 5 -54 10 0 6 20 10 45 10 25 0
45 5 45 10 0 6 -13 10 -29 10 -44 0 -61 10 -61 34 0 32 7 36 63 36 34 0 47 -4
45 -12z m132 -3 c0 -8 -9 -15 -20 -15 -17 0 -20 -7 -20 -40 0 -22 -4 -40 -10
-40 -5 0 -10 17 -10 39 0 30 -4 40 -20 44 -39 10 -20 27 30 27 38 0 50 -4 50
-15z m109 -35 c36 -58 36 -60 16 -60 -8 0 -15 5 -15 10 0 6 -11 10 -25 10 -25
0 -35 15 -13 22 6 2 9 11 6 19 -4 9 -12 2 -28 -23 -21 -37 -40 -49 -40 -27 0
16 51 99 60 99 5 0 22 -23 39 -50z m131 41 c0 -5 -7 -11 -15 -15 -10 -3 -15
-19 -15 -46 0 -29 -4 -40 -15 -40 -11 0 -15 11 -15 39 0 31 -4 40 -21 44 -12
3 -18 10 -14 16 8 13 95 15 95 2z m130 0 c0 -6 -15 -11 -32 -13 -29 -3 -33 -7
-36 -35 -3 -32 -2 -33 32 -33 20 0 36 -5 36 -11 0 -6 -19 -9 -47 -7 l-48 3 -1
45 c0 25 1 48 3 53 6 10 93 9 93 -2z m180 -42 c17 -28 29 -53 27 -55 -2 -2
-21 5 -42 16 -22 11 -34 20 -27 20 7 0 12 7 12 15 0 25 -14 17 -34 -20 -11
-19 -25 -35 -33 -35 -11 0 -11 4 -1 23 36 61 54 87 60 87 3 0 20 -23 38 -51z
m162 33 c14 -14 13 -59 -2 -77 -8 -9 -29 -15 -56 -15 l-44 0 0 48 c0 27 3 52
8 56 9 10 81 1 94 -12z m131 -46 c-15 -25 -31 -46 -35 -46 -13 0 -60 78 -56
92 3 7 16 -4 30 -26 l26 -38 28 43 c36 58 43 35 7 -25z m87 3 c0 -27 -4 -49
-10 -49 -5 0 -10 25 -10 56 0 34 4 53 10 49 6 -3 10 -28 10 -56z m138 49 c-3
-7 -23 -14 -47 -16 -51 -4 -44 -22 9 -22 43 0 54 -10 45 -40 -5 -17 -15 -20
-61 -20 -30 0 -54 5 -54 10 0 6 20 10 45 10 25 0 45 5 45 10 0 6 -15 10 -34
10 -39 0 -60 20 -51 50 5 17 15 20 57 20 35 0 48 -4 46 -12z m62 -49 c0 -27
-4 -49 -10 -49 -5 0 -10 25 -10 56 0 34 4 53 10 49 6 -3 10 -28 10 -56z m148
49 c17 -17 15 -73 -4 -89 -9 -7 -31 -13 -49 -13 -18 0 -40 6 -49 13 -21 17
-20 60 1 83 19 21 82 25 101 6z m150 -1 c13 -15 12 -97 -1 -97 -5 0 -15 7 -23
15 -9 8 -24 15 -35 15 -10 0 -19 -7 -19 -15 0 -8 -7 -15 -15 -15 -12 0 -15 13
-15 55 l0 55 49 0 c28 0 53 -6 59 -13z m-1708 -47 c0 -5 -11 -10 -25 -10 -14
0 -25 5 -25 10 0 6 11 10 25 10 14 0 25 -4 25 -10z m640 0 c0 -5 -9 -10 -19
-10 -11 0 -23 5 -26 10 -4 6 5 10 19 10 14 0 26 -4 26 -10z"/>
<path d="M2470 2670 c0 -5 5 -10 11 -10 5 0 7 5 4 10 -3 6 -8 10 -11 10 -2 0
-4 -4 -4 -10z"/>
<path d="M2941 2844 c0 -11 3 -14 6 -6 3 7 2 16 -1 19 -3 4 -6 -2 -5 -13z"/>
<path d="M2942 2800 c0 -14 2 -19 5 -12 2 6 2 18 0 25 -3 6 -5 1 -5 -13z"/>
<path d="M2820 1214 c0 -34 1 -35 31 -32 63 6 61 68 -2 68 -27 0 -29 -3 -29
-36z"/>
<path d="M3380 1215 c0 -29 19 -40 56 -31 19 5 25 12 22 29 -2 18 -11 23 -40
25 -35 3 -38 1 -38 -23z"/>
<path d="M3540 1222 c0 -15 6 -17 35 -14 21 3 35 10 35 18 0 9 -12 14 -35 14
-27 0 -35 -4 -35 -18z"/>
</g>
</svg>
